<svg width="51" height="50" viewBox="0 0 51 50" fill="none" xmlns="http://www.w3.org/2000/svg">
<ellipse cx="25.7807" cy="25" rx="25.2193" ry="25" fill="#FAB430"/>
<g clip-path="url(#clip0_46_208)">
<path d="M24.2045 15H27.3569C27.881 15 28.3026 15.418 28.3026 15.9375V22.5H31.7585C32.4599 22.5 32.8106 23.3398 32.3141 23.832L26.3206 29.7773C26.025 30.0703 25.5403 30.0703 25.2448 29.7773L19.2434 23.832C18.7469 23.3398 19.0976 22.5 19.799 22.5H23.2588V15.9375C23.2588 15.418 23.6804 15 24.2045 15ZM35.8684 29.6875V34.0625C35.8684 34.582 35.4468 35 34.9227 35H16.6387C16.1146 35 15.693 34.582 15.693 34.0625V29.6875C15.693 29.168 16.1146 28.75 16.6387 28.75H22.4195L24.3503 30.6641C25.1423 31.4492 26.4191 31.4492 27.2111 30.6641L29.142 28.75H34.9227C35.4468 28.75 35.8684 29.168 35.8684 29.6875ZM30.9822 33.125C30.9822 32.6953 30.6275 32.3438 30.1941 32.3438C29.7606 32.3438 29.406 32.6953 29.406 33.125C29.406 33.5547 29.7606 33.9062 30.1941 33.9062C30.6275 33.9062 30.9822 33.5547 30.9822 33.125ZM33.5041 33.125C33.5041 32.6953 33.1495 32.3438 32.716 32.3438C32.2826 32.3438 31.9279 32.6953 31.9279 33.125C31.9279 33.5547 32.2826 33.9062 32.716 33.9062C33.1495 33.9062 33.5041 33.5547 33.5041 33.125Z" fill="white"/>
</g>
<defs>
<clipPath id="clip0_46_208">
<rect width="20.1754" height="20" fill="white" transform="translate(15.693 15)"/>
</clipPath>
</defs>
</svg>
