<svg width="20" height="20" viewBox="0 0 20 20" fill="none" xmlns="http://www.w3.org/2000/svg">
<path d="M16.9231 11.7073V19.0244C16.9231 19.2886 16.847 19.5173 16.6947 19.7104C16.5425 19.9035 16.3622 20 16.1538 20H11.5385V14.1463H8.46153V20H3.84615C3.63781 20 3.45753 19.9035 3.30528 19.7104C3.15304 19.5173 3.07692 19.2886 3.07692 19.0244V11.7073C3.07692 11.6972 3.07892 11.6819 3.08293 11.6616C3.08693 11.6413 3.08894 11.626 3.08894 11.6159L10 4.39024L16.9111 11.6159C16.9191 11.6362 16.9231 11.6667 16.9231 11.7073ZM19.6034 10.6555L18.8582 11.7835C18.7941 11.875 18.7099 11.9309 18.6058 11.9512H18.5697C18.4655 11.9512 18.3814 11.9156 18.3173 11.8445L10 3.04878L1.68269 11.8445C1.58653 11.9258 1.49038 11.9614 1.39422 11.9512C1.29006 11.9309 1.20592 11.875 1.14182 11.7835L0.396627 10.6555C0.332525 10.5539 0.30448 10.4344 0.312493 10.2973C0.320506 10.1601 0.364576 10.0508 0.444704 9.96951L9.08654 0.838411C9.34295 0.574184 9.64743 0.44207 10 0.44207C10.3526 0.44207 10.657 0.574184 10.9135 0.838411L13.8462 3.94817V0.975607C13.8462 0.83333 13.8822 0.71646 13.9543 0.624997C14.0264 0.533533 14.1186 0.487802 14.2308 0.487802H16.5385C16.6506 0.487802 16.7428 0.533533 16.8149 0.624997C16.887 0.71646 16.9231 0.83333 16.9231 0.975607V7.19512L19.5553 9.96951C19.6354 10.0508 19.6795 10.1601 19.6875 10.2973C19.6955 10.4344 19.6675 10.5539 19.6034 10.6555Z" fill="white"/>
</svg>
