<svg width="50" height="50" viewBox="0 0 50 50" fill="none" xmlns="http://www.w3.org/2000/svg">
<path d="M14.2857 0C14.5275 0 14.7368 0.0883557 14.9135 0.265067C15.0902 0.441778 15.1786 0.651042 15.1786 0.892857V41.9643C15.1786 42.3363 15.0205 42.5967 14.7042 42.7455L1.31138 49.8884C1.18118 49.9628 1.04167 50 0.892857 50C0.651042 50 0.441778 49.9116 0.265067 49.7349C0.0883557 49.5582 0 49.349 0 49.1071V8.03571C0 7.66369 0.15811 7.40327 0.47433 7.25446L13.8672 0.111607C13.9974 0.0372024 14.1369 0 14.2857 0ZM49.1071 0C49.349 0 49.5582 0.0883557 49.7349 0.265067C49.9116 0.441778 50 0.651042 50 0.892857V41.9643C50 42.3363 49.8419 42.5967 49.5257 42.7455L36.1328 49.8884C36.0026 49.9628 35.8631 50 35.7143 50C35.4725 50 35.2632 49.9116 35.0865 49.7349C34.9098 49.5582 34.8214 49.349 34.8214 49.1071V8.03571C34.8214 7.66369 34.9795 7.40327 35.2958 7.25446L48.6886 0.111607C48.8188 0.0372024 48.9583 0 49.1071 0ZM17.8571 0C18.006 0 18.1362 0.0279018 18.2478 0.0837054L32.5335 7.22656C32.8683 7.41257 33.0357 7.68229 33.0357 8.03571V49.1071C33.0357 49.349 32.9474 49.5582 32.7706 49.7349C32.5939 49.9116 32.3847 50 32.1429 50C31.994 50 31.8638 49.9721 31.7522 49.9163L17.4665 42.7734C17.1317 42.5874 16.9643 42.3177 16.9643 41.9643V0.892857C16.9643 0.651042 17.0526 0.441778 17.2294 0.265067C17.4061 0.0883557 17.6153 0 17.8571 0Z" fill="#FAB430"/>
</svg>
