<svg width="50" height="50" viewBox="0 0 50 50" fill="none" xmlns="http://www.w3.org/2000/svg">
<circle cx="25" cy="25" r="25" fill="#2B2A2A"/>
<g clip-path="url(#clip0_10_55)">
<path fill-rule="evenodd" clip-rule="evenodd" d="M22.186 34.172C22.975 34.682 23.887 35.027 25 35C26.111 35.027 27.025 34.682 27.814 34.172L27.797 32H22.203L22.186 34.172ZM27.697 31C27.697 26.643 32.327 25.152 31.98 20.812C31.762 18.074 29.907 15.002 25 15.002C20.093 15.002 18.238 18.074 18.019 20.813C17.672 25.152 22.303 26.643 22.303 31H27.697ZM20 21C20.207 18.402 22.113 17 25 17C27.886 17 29.654 18.371 29.861 20.969C29.974 22.393 29.156 23.342 28.052 24.895C27.238 26.041 26.449 27.238 26 29H24C23.551 27.238 22.762 26.041 21.947 24.894C20.844 23.342 19.886 22.424 20 21Z" fill="white"/>
</g>
<defs>
<clipPath id="clip0_10_55">
<rect width="20" height="20" fill="white" transform="translate(15 15)"/>
</clipPath>
</defs>
</svg>
