<svg width="44" height="44" viewBox="0 0 44 44" fill="none" xmlns="http://www.w3.org/2000/svg">
<path d="M37.5 0H6.25C2.79785 0 0 2.79785 0 6.25V37.5C0 40.9521 2.79785 43.75 6.25 43.75H37.5C40.9521 43.75 43.75 40.9521 43.75 37.5V6.25C43.75 2.79785 40.9473 0 37.5 0ZM34.3359 28.2715L33.2012 33.1924C33.0417 33.8882 32.4297 34.375 31.7129 34.375C19.3984 34.375 9.37891 24.3555 9.37891 12.0312C9.37891 11.3156 9.86563 10.7041 10.5615 10.5449L15.4814 9.40918C16.1986 9.24287 16.9346 9.61514 17.2324 10.2941L19.5049 15.5949C19.634 15.899 19.6611 16.2369 19.582 16.5577C19.5029 16.8785 19.3219 17.165 19.0662 17.3742L16.4355 19.5312C18.0947 22.9111 20.8438 25.6592 24.2256 27.3193L26.376 24.6914C26.8002 24.1649 27.5332 23.9834 28.1572 24.2535L33.4541 26.524C34.1309 26.8164 34.502 27.5586 34.3359 28.2715Z" fill="#FAB430"/>
</svg>
