<svg width="51" height="50" viewBox="0 0 51 50" fill="none" xmlns="http://www.w3.org/2000/svg">
<ellipse cx="25.7808" cy="25" rx="25.2193" ry="25" fill="#FAB430"/>
<path d="M33.3189 17.6813C33.2345 17.5973 33.128 17.5392 33.0117 17.5137C32.8954 17.4882 32.7743 17.4965 32.6626 17.5375L18.9126 22.5375C18.794 22.5825 18.6919 22.6625 18.6199 22.7669C18.5479 22.8712 18.5093 22.9951 18.5093 23.1219C18.5093 23.2487 18.5479 23.3725 18.6199 23.4769C18.6919 23.5813 18.794 23.6613 18.9126 23.7063L24.2814 25.85L28.2439 21.875L29.1251 22.7563L25.1439 26.7375L27.2939 32.1063C27.3402 32.2225 27.4204 32.3223 27.524 32.3925C27.6276 32.4627 27.7499 32.5001 27.8751 32.5C28.0014 32.4974 28.124 32.4566 28.2266 32.383C28.3293 32.3093 28.4072 32.2063 28.4501 32.0875L33.4501 18.3375C33.4927 18.2269 33.503 18.1065 33.4797 17.9903C33.4565 17.8741 33.4007 17.767 33.3189 17.6813Z" fill="white"/>
</svg>
