<svg width="20" height="20" viewBox="0 0 20 20" fill="none" xmlns="http://www.w3.org/2000/svg">
<path d="M19.6328 7.13281L17.8652 5.36523C17.6317 5.13152 17.3148 5.00014 16.9844 5H15V3.125C15 2.08984 14.1602 1.25 13.125 1.25H6.875C5.83984 1.25 5 2.08984 5 3.125V5H3.01758C2.68555 5 2.36836 5.13184 2.13398 5.36621L0.366211 7.13281C0.131836 7.36719 0 7.6875 0 8.01953V11.875H5V10.625C5 10.2773 5.27734 10 5.625 10H6.875C7.22266 10 7.5 10.2773 7.5 10.625V11.875H12.5V10.625C12.5 10.2773 12.7773 10 13.125 10H14.375C14.7227 10 15 10.2773 15 10.625V11.875H20V8.01953C20 7.6875 19.8672 7.36719 19.6328 7.13281ZM13.125 5H6.875V3.125H13.125V5ZM15 14.375C15 14.7217 14.7217 15 14.375 15H13.125C12.7783 15 12.5 14.7217 12.5 14.375V13.125H7.5V14.375C7.5 14.7227 7.22266 15 6.875 15H5.625C5.27734 15 5 14.7227 5 14.375V13.125H0V17.5C0 18.1883 0.561719 18.75 1.25 18.75H18.75C19.4383 18.75 20 18.1883 20 17.5V13.125H15V14.375Z" fill="white"/>
</svg>
